<svg xmlns="http://www.w3.org/2000/svg" viewBox="0 0 800 600" fill="none">
  <defs>
    <linearGradient id="bg2" x1="0" y1="0" x2="800" y2="600" gradientUnits="userSpaceOnUse">
      <stop offset="0%" stop-color="#fef3c7"/>
      <stop offset="100%" stop-color="#fffbeb"/>
    </linearGradient>
  </defs>

  <!-- Background -->
  <rect width="800" height="600" fill="url(#bg2)"/>

  <!-- Decorative circles -->
  <circle cx="680" cy="100" r="160" fill="#f59e0b" opacity="0.07"/>
  <circle cx="100" cy="500" r="120" fill="#f59e0b" opacity="0.07"/>

  <!-- Grid dots -->
  <g fill="#f59e0b" opacity="0.2">
    <circle cx="480" cy="80"  r="2.5"/><circle cx="560" cy="80"  r="2.5"/>
    <circle cx="640" cy="80"  r="2.5"/><circle cx="720" cy="80"  r="2.5"/>
    <circle cx="480" cy="160" r="2.5"/><circle cx="560" cy="160" r="2.5"/>
    <circle cx="640" cy="160" r="2.5"/><circle cx="720" cy="160" r="2.5"/>
    <circle cx="480" cy="240" r="2.5"/><circle cx="560" cy="240" r="2.5"/>
    <circle cx="640" cy="240" r="2.5"/><circle cx="720" cy="240" r="2.5"/>
  </g>

  <!-- Service cards grid (3x2) -->
  <!-- Row 1 -->
  <rect x="96"  y="140" width="176" height="140" rx="14" fill="white" opacity="0.9"/>
  <rect x="96"  y="140" width="176" height="44"  rx="14" fill="#2563eb"/>
  <rect x="96"  y="168" width="176" height="16"  fill="#2563eb"/>
  <circle cx="124" cy="162" r="10" fill="white" opacity="0.3"/>
  <rect x="116" y="202" width="136" height="8" rx="4" fill="#dbeafe"/>
  <rect x="116" y="218" width="100" height="8" rx="4" fill="#dbeafe"/>
  <rect x="116" y="246" width="80"  height="24" rx="6" fill="#2563eb" opacity="0.15"/>

  <rect x="312" y="140" width="176" height="140" rx="14" fill="white" opacity="0.9"/>
  <rect x="312" y="140" width="176" height="44"  rx="14" fill="#f59e0b"/>
  <rect x="312" y="168" width="176" height="16"  fill="#f59e0b"/>
  <circle cx="340" cy="162" r="10" fill="white" opacity="0.3"/>
  <rect x="332" y="202" width="136" height="8" rx="4" fill="#fef3c7"/>
  <rect x="332" y="218" width="100" height="8" rx="4" fill="#fef3c7"/>
  <rect x="332" y="246" width="80"  height="24" rx="6" fill="#f59e0b" opacity="0.2"/>

  <rect x="528" y="140" width="176" height="140" rx="14" fill="white" opacity="0.9"/>
  <rect x="528" y="140" width="176" height="44"  rx="14" fill="#2563eb"/>
  <rect x="528" y="168" width="176" height="16"  fill="#2563eb"/>
  <circle cx="556" cy="162" r="10" fill="white" opacity="0.3"/>
  <rect x="548" y="202" width="136" height="8" rx="4" fill="#dbeafe"/>
  <rect x="548" y="218" width="100" height="8" rx="4" fill="#dbeafe"/>
  <rect x="548" y="246" width="80"  height="24" rx="6" fill="#2563eb" opacity="0.15"/>

  <!-- Row 2 -->
  <rect x="96"  y="316" width="176" height="140" rx="14" fill="white" opacity="0.9"/>
  <rect x="96"  y="316" width="176" height="44"  rx="14" fill="#f59e0b"/>
  <rect x="96"  y="344" width="176" height="16"  fill="#f59e0b"/>
  <circle cx="124" cy="338" r="10" fill="white" opacity="0.3"/>
  <rect x="116" y="378" width="136" height="8" rx="4" fill="#fef3c7"/>
  <rect x="116" y="394" width="100" height="8" rx="4" fill="#fef3c7"/>
  <rect x="116" y="422" width="80"  height="24" rx="6" fill="#f59e0b" opacity="0.2"/>

  <rect x="312" y="316" width="176" height="140" rx="14" fill="white" opacity="0.9"/>
  <rect x="312" y="316" width="176" height="44"  rx="14" fill="#2563eb"/>
  <rect x="312" y="344" width="176" height="16"  fill="#2563eb"/>
  <circle cx="340" cy="338" r="10" fill="white" opacity="0.3"/>
  <rect x="332" y="378" width="136" height="8" rx="4" fill="#dbeafe"/>
  <rect x="332" y="394" width="100" height="8" rx="4" fill="#dbeafe"/>
  <rect x="332" y="422" width="80"  height="24" rx="6" fill="#2563eb" opacity="0.15"/>

  <rect x="528" y="316" width="176" height="140" rx="14" fill="white" opacity="0.9"/>
  <rect x="528" y="316" width="176" height="44"  rx="14" fill="#f59e0b"/>
  <rect x="528" y="344" width="176" height="16"  fill="#f59e0b"/>
  <circle cx="556" cy="338" r="10" fill="white" opacity="0.3"/>
  <rect x="548" y="378" width="136" height="8" rx="4" fill="#fef3c7"/>
  <rect x="548" y="394" width="100" height="8" rx="4" fill="#fef3c7"/>
  <rect x="548" y="422" width="80"  height="24" rx="6" fill="#f59e0b" opacity="0.2"/>
</svg>
